<?xml version="1.0" encoding="UTF-8"?>
<!-- Generator: visioncortex VTracer 0.6.4 -->
<svg version="1.1" xmlns="http://www.w3.org/2000/svg" width="1024" height="1024">
<defs>
  <linearGradient id="nameGrad" x1="360" y1="0" x2="664" y2="0" gradientUnits="userSpaceOnUse">
    <stop offset="0" stop-color="#1E6BFF"/>
    <stop offset="0.6" stop-color="#35B7D6"/>
    <stop offset="1" stop-color="#D59225"/>
  </linearGradient>

  <!-- Striking blue + richer gold for the mark -->
  <linearGradient id="blueStrong" x1="420" y1="120" x2="620" y2="620" gradientUnits="userSpaceOnUse">
    <stop offset="0" stop-color="#00C2FF"/>
    <stop offset="0.45" stop-color="#1E66FF"/>
    <stop offset="1" stop-color="#0837D7"/>
  </linearGradient>

  <linearGradient id="goldStrong" x1="560" y1="220" x2="740" y2="720" gradientUnits="userSpaceOnUse">
    <stop offset="0" stop-color="#FFE38A"/>
    <stop offset="0.22" stop-color="#F5C24C"/>
    <stop offset="0.55" stop-color="#C98513"/>
    <stop offset="0.82" stop-color="#FFD06A"/>
    <stop offset="1" stop-color="#A86A08"/>
  </linearGradient>
</defs>
<path d="M0 0 C337.92 0 675.84 0 1024 0 C1024 337.92 1024 675.84 1024 1024 C686.08 1024 348.16 1024 0 1024 C0 686.08 0 348.16 0 0 Z " fill="#FDFDFD" transform="translate(0,0)"/>
<!-- Mark (reordered + rounded strokes so edges look merged) -->
<path d="M0 0 C-2.6589 14.0729 -18.5853 28.8115 -28 39 C-28.7941 39.8972 -29.5881 40.7944 -30.4062 41.7188 C-41.0522 53.6473 -52.8252 64.4612 -65.0356 74.7668 C-68.8427 77.983 -72.5384 81.2936 -76.1875 84.6875 C-79.7914 88.0366 -83.4684 91.2395 -87.3125 94.3125 C-104.8603 108.1236 -104.8603 108.1236 -116 127 C-116.6175 133.4596 -115.4433 139.0011 -113.5 145.125 C-111.3506 151.9684 -109.8083 157.652 -112.3125 164.6875 C-119.7842 178.2676 -134.6689 189.5712 -146.625 198.9297 C-151.1004 202.8309 -153.7258 206.084 -154.1484 212.0234 C-153.8776 215.6304 -152.3803 217.3364 -150 220 C-147.0874 222.4602 -144.069 224.7403 -141 227 C-140 228 -140 228 -139.6875 231 C-139.7078 234.3015 -140.5802 236.5975 -142 239.5625 C-143.7495 243.2622 -144.8298 245.8509 -144 250 C-142.5023 252.2543 -140.8812 254.0248 -139 256 C-140.1314 258.5456 -141.2465 260.2755 -143.125 262.375 C-145.1442 264.8628 -145.1442 264.8628 -145.6875 267.75 C-144.9154 271.3998 -143.8305 272.5896 -141.4375 275.375 C-138.1007 279.3994 -138.1007 279.3994 -137.6523 282.0742 C-138.0474 285.602 -139.2371 288.666 -140.5625 291.9375 C-142.8628 297.7165 -142.5538 302.7847 -141.0625 308.75 C-138.2528 313.1774 -134.9053 315.2465 -130 317 C-122.7862 318.2229 -115.674 318.0608 -108.375 317.957 C-106.3862 317.9404 -104.3974 317.9237 -102.4087 317.9085 C-97.5385 317.8706 -92.6686 317.8239 -87.7988 317.7532 C-85.0555 317.7139 -82.3124 317.6855 -79.5688 317.6689 C-76.9955 317.653 -74.4221 317.6216 -71.8491 317.5725 C-63.4621 317.5473 -57.9735 318.4729 -51.5312 324.1914 C-50.8609 324.9739 -50.1906 325.7563 -49.5 326.5625 C-48.7588 327.4275 -48.0176 328.2924 -47.2539 329.1836 C-43.6646 333.6687 -40.2865 338.2896 -37 343 C-40.658 346.7604 -44.4876 350.1869 -48.5 353.5625 C-58.962 362.4649 -69.1083 371.4901 -78 382 C-78.6523 382.7644 -79.3045 383.5288 -79.9766 384.3164 C-88.3536 394.4457 -95.3972 405.6554 -102 417 C-102.6097 418.0235 -103.2195 419.047 -103.8477 420.1016 C-104.4754 421.1612 -105.1032 422.2208 -105.75 423.3125 C-106.6085 424.7608 -106.6085 424.7608 -107.4844 426.2383 C-108.8793 428.7801 -109.9913 431.2854 -111 434 C-114.3647 432.5949 -115.966 431.0803 -118.0312 428.0977 C-118.5882 427.3 -119.1452 426.5023 -119.719 425.6804 C-120.3067 424.8165 -120.8945 423.9526 -121.5 423.0625 C-122.427 421.7154 -122.427 421.7154 -123.3728 420.3411 C-138.7836 397.7948 -155.169 373.5549 -164.1055 347.582 C-164.9998 345.0005 -165.9793 342.4715 -167 339.9375 C-167.313 339.1564 -167.626 338.3753 -167.9485 337.5706 C-168.5775 336.0328 -169.2246 334.5019 -169.9077 332.9873 C-173.3002 325.2102 -175.1224 317.0684 -177.0371 308.8342 C-177.6203 306.3326 -178.2194 303.8353 -178.8203 301.3379 C-182.9461 283.9868 -184.35 267.5647 -184.3157 249.7502 C-184.3125 246.3364 -184.336 242.9235 -184.3613 239.5098 C-184.4124 222.1988 -183.0555 205.4939 -178.1875 188.8125 C-177.7985 187.4418 -177.7985 187.4418 -177.4016 186.0435 C-167.2865 151.018 -150.7595 119.6806 -126.3657 92.5288 C-124.6695 90.63 -123.0238 88.69 -121.375 86.75 C-114.5086 78.9295 -106.96 71.694 -99 65 C-98.1196 64.242 -97.2391 63.4841 -96.332 62.7031 C-90.8335 58.0254 -85.2315 53.5929 -79.375 49.375 C-78.7709 48.937 -78.1668 48.4989 -77.5444 48.0476 C-73.2472 45 -73.2472 45 -71 45 C-71 44.34 -71 43.68 -71 43 C-69.4531 41.7734 -69.4531 41.7734 -67.25 40.375 C-66.4224 39.8413 -65.5948 39.3077 -64.7422 38.7578 C-63.8373 38.1777 -62.9323 37.5977 -62 37 C-60.1225 35.7537 -58.2477 34.5035 -56.375 33.25 C-55.3489 32.5681 -54.3228 31.8862 -53.2656 31.1836 C-51.0587 29.7079 -48.8613 28.2236 -46.6719 26.7227 C-7.4765 0 -7.4765 0 0 0 Z "
      fill="url(#blueStrong)" stroke="url(#blueStrong)" stroke-width="26"
      stroke-linejoin="round" stroke-linecap="round" stroke-miterlimit="1"
      paint-order="stroke fill"
      transform="translate(500,83)"/>

<path d="M0 0 C15.8977 34.783 29.422 70.9266 39 108 C39.2224 108.8604 39.4447 109.7209 39.6738 110.6074 C42.5725 121.9793 44.9566 133.3642 46.6958 144.9702 C46.9842 146.8944 47.2866 148.8164 47.5898 150.7383 C56.3328 208.11 43.4646 266.6124 9.5894 313.9722 C3.0349 322.8783 -4.3373 331.0421 -12 339 C-12.5018 339.5237 -13.0035 340.0474 -13.5205 340.5869 C-27.9061 355.5276 -44.5199 367.7717 -62 378.875 C-62.6764 379.31 -63.3527 379.745 -64.0496 380.1931 C-65.6604 381.1949 -67.3261 382.1075 -69 383 C-69.66 382.67 -70.32 382.34 -71 382 C-70.273 381.4779 -69.5459 380.9559 -68.7969 380.418 C-61.0411 374.7403 -53.9466 368.6378 -47 362 C-46.1956 361.2369 -45.3913 360.4737 -44.5625 359.6875 C-24.052 339.7468 -8.4664 313.9317 1 287 C1.3132 286.126 1.6265 285.252 1.9492 284.3516 C3.4852 279.4523 4.703 274.4827 5.9375 269.5 C6.3362 267.8951 6.3362 267.8951 6.7429 266.2578 C15.5657 230.5012 15.6719 193.1945 1.4492 158.5586 C0.0882 155.2165 -1.059 151.8636 -2.1875 148.4375 C-7.8471 132.5471 -15.9159 117.6124 -24.6538 103.231 C-48.8065 63.2043 -48.8065 63.2043 -44.1641 43.4414 C-37.2575 24.1355 -21.2733 10.5446 -3.8125 0.8477 C-2 0 -2 0 0 0 Z "
      fill="url(#blueStrong)" opacity="0.55" stroke="url(#blueStrong)" stroke-width="20"
      stroke-linejoin="round" stroke-linecap="round" stroke-miterlimit="1"
      paint-order="stroke fill"
      transform="translate(520,509)"/>

<path d="M0 0 C4.8653 1.521 8.063 4.3174 11.8125 7.625 C12.4298 8.1626 13.0471 8.7002 13.6831 9.2542 C26.2767 20.3087 26.2767 20.3087 31 27 C31 27.66 31 28.32 31 29 C31.99 29.33 32.98 29.66 34 30 C34.3333 31.3333 34.6667 32.6667 35 34 C35.99 34.33 36.98 34.66 38 35 C40.2024 37.6273 41.9354 40.5953 43.75 43.5 C44.2857 44.3542 44.8214 45.2085 45.3733 46.0886 C49.8706 53.4454 53.3285 60.9354 56.2783 69.0229 C56.9829 70.9533 57.7182 72.8692 58.4609 74.7852 C65.8019 94.2832 66.1512 113.144 58.25 132.5 C56.3127 137.9243 55.9818 141.425 58.0781 146.7266 C62.5621 155.6719 68.5901 163.5561 74.5977 171.5195 C75.1619 172.2676 75.7262 173.0156 76.3076 173.7864 C77.4386 175.2657 78.5853 176.7331 79.7471 178.1882 C80.2907 178.8789 80.8344 179.5696 81.3945 180.2812 C81.8816 180.8865 82.3686 181.4917 82.8704 182.1152 C84.5643 184.9416 84.6371 187.5868 84.6016 190.8242 C83.3596 195.3161 80.6276 197.6082 76.7656 200.0195 C75.6055 200.6112 74.4453 201.2029 73.25 201.8125 C72.0795 202.4171 70.9091 203.0216 69.7031 203.6445 C68.8111 204.0918 67.9191 204.5391 67 205 C66.8163 210.3269 67.2743 213.9307 69 219 C69.6371 225.1582 69.6371 225.1582 67.25 228.3125 C65.2171 229.8372 63.3309 231.0011 61 232 C62.2038 234.4936 63.4543 236.6814 65 239 C65.7846 242.1448 65.748 244.8476 65 248 C63.0979 250.7286 60.9839 253.1433 58.7852 255.6367 C56.6702 258.0403 56.6702 258.0403 56.4375 261.9375 C56.9311 265.0261 56.9311 265.0261 58 268 C58.5329 274.2887 57.7192 278.7931 54 284 C48.3449 288.2758 43.1013 288.1928 36.3125 288.1875 C35.3502 288.1874 34.3879 288.1873 33.3965 288.1873 C21.4562 288.096 9.0107 287.7162 -2.7456 285.4771 C-6.8939 284.869 -10.9459 284.8377 -15.1328 284.832 C-16.0059 284.8287 -16.879 284.8254 -17.7785 284.8219 C-19.6225 284.8169 -21.4665 284.8145 -23.3105 284.8147 C-26.0952 284.8125 -28.8795 284.7944 -31.6641 284.7754 C-40.9713 284.7456 -49.873 284.9472 -59 287 C-60.2839 287.2604 -61.5678 287.5208 -62.8906 287.7891 C-86.0172 293.5438 -106.9998 307.7868 -120.0977 327.8008 C-122.8313 332.398 -125.0737 337.0142 -127 342 C-127.3184 342.727 -127.6368 343.4541 -127.9648 344.2031 C-134.4313 361.2482 -128.9383 379.2777 -122.0605 395.1709 C-116.2695 408.0132 -108.7849 420.1648 -101.4609 432.1758 C-96.5928 440.2012 -92.1748 448.3721 -88.0625 456.8125 C-87.6017 457.7429 -87.1408 458.6733 -86.666 459.6318 C-83.8807 465.4686 -82.0205 471.139 -80.6309 477.457 C-79.8591 480.568 -78.4547 483.1538 -77 486 C-76.409 488.0489 -75.9704 490.0909 -75.5667 492.1848 C-75.1668 494.1711 -74.7272 496.1495 -74.2593 498.1208 C-71.9451 508.3576 -71.5165 518.1548 -71.625 528.625 C-71.631 529.463 -71.637 530.3011 -71.6431 531.1645 C-71.9993 573.7851 -86.6529 613.7785 -115 646 C-115.8276 646.9604 -116.6552 647.9207 -117.5078 648.9102 C-122.4937 654.5939 -127.7921 659.79 -133.5 664.75 C-134.0997 665.2759 -134.6993 665.8017 -135.3171 666.3435 C-139.6296 670 -139.6296 670 -143 670 C-142.4547 669.213 -142.4547 669.213 -141.8984 668.4102 C-136.7283 660.4429 -133.791 652.0091 -131 643 C-130.4837 641.4048 -130.4837 641.4048 -129.957 639.7773 C-120.1846 603.4864 -135.1474 566.048 -153 535 C-153.6407 533.8759 -154.2813 532.7519 -154.9414 531.5938 C-156.9561 528.0597 -158.9778 524.5298 -161 521 C-163.2667 517.0367 -165.5287 513.0707 -167.7852 509.1016 C-168.7801 507.3805 -169.7919 505.6693 -170.8086 503.9609 C-171.4493 502.8807 -172.0899 501.8005 -172.75 500.6875 C-173.3636 499.6601 -173.9772 498.6327 -174.6094 497.5742 C-176 495 -176 495 -176 493 C-176.66 493 -177.32 493 -178 493 C-180 490 -180 490 -180 486 C-180.66 486 -181.32 486 -182 486 C-182.3029 485.2498 -182.6059 484.4995 -182.918 483.7266 C-184.915 478.8477 -186.913 474.0684 -189.4375 469.4375 C-206.5368 435.4533 -208.8105 387.655 -197.5625 351.5 C-196.7287 348.9926 -195.8634 346.4975 -195 344 C-194.7048 343.0139 -194.4096 342.0277 -194.1055 341.0117 C-187.8524 320.3681 -176.1295 300.9703 -163 284 C-162.3787 283.1866 -161.7573 282.3732 -161.1172 281.5352 C-149.6973 266.902 -136.3432 252.8135 -122 241 C-121.4728 240.559 -120.9455 240.118 -120.4023 239.6636 C-104.4289 226.3164 -87.5167 214.4261 -70.0703 203.0977 C-54.5836 192.952 -38.6504 182.038 -25.7461 168.6641 C-24 167 -24 167 -22 167 C-21.768 166.438 -21.5359 165.8759 -21.2969 165.2969 C-19.6721 162.4193 -17.6427 160.5267 -15.25 158.25 C-10.9926 154.0595 -7.3682 149.9183 -4 145 C-3.6341 144.4834 -3.2681 143.9668 -2.8911 143.4346 C12.1611 122.1668 20.0238 99.5576 20.9375 73.4375 C20.9642 72.7306 20.991 72.0236 21.0185 71.2953 C21.3581 61.2794 20.7576 52.5245 17.1289 43.082 C16 40 16 40 16.0195 37.4805 C15.9921 33.9904 14.6477 31.6182 13.125 28.5 C11.2869 24.6994 9.5628 20.9201 8 17 C6.9653 14.9381 5.8898 12.9029 4.8047 10.8672 C4 9 4 9 4 6 C3.01 5.505 3.01 5.505 2 5 C1.2784 3.3564 0.6065 1.6895 0 0 Z "
      fill="url(#goldStrong)" stroke="url(#goldStrong)" stroke-width="26"
      stroke-linejoin="round" stroke-linecap="round" stroke-miterlimit="1"
      paint-order="stroke fill"
      transform="translate(589,203)"/>
<path d="M0 0 C-2.6589 14.0729 -18.5853 28.8115 -28 39 C-28.7941 39.8972 -29.5881 40.7944 -30.4062 41.7188 C-41.0522 53.6473 -52.8252 64.4612 -65.0356 74.7668 C-68.8427 77.983 -72.5384 81.2936 -76.1875 84.6875 C-79.7914 88.0366 -83.4684 91.2395 -87.3125 94.3125 C-104.8603 108.1236 -104.8603 108.1236 -116 127 C-116.6175 133.4596 -115.4433 139.0011 -113.5 145.125 C-111.3506 151.9684 -109.8083 157.652 -112.3125 164.6875 C-119.7842 178.2676 -134.6689 189.5712 -146.625 198.9297 C-151.1004 202.8309 -153.7258 206.084 -154.1484 212.0234 C-153.8776 215.6304 -152.3803 217.3364 -150 220 C-147.0874 222.4602 -144.069 224.7403 -141 227 C-140 228 -140 228 -139.6875 231 C-139.7078 234.3015 -140.5802 236.5975 -142 239.5625 C-143.7495 243.2622 -144.8298 245.8509 -144 250 C-142.5023 252.2543 -140.8812 254.0248 -139 256 C-140.1314 258.5456 -141.2465 260.2755 -143.125 262.375 C-145.1442 264.8628 -145.1442 264.8628 -145.6875 267.75 C-144.9154 271.3998 -143.8305 272.5896 -141.4375 275.375 C-138.1007 279.3994 -138.1007 279.3994 -137.6523 282.0742 C-138.0474 285.602 -139.2371 288.666 -140.5625 291.9375 C-142.8628 297.7165 -142.5538 302.7847 -141.0625 308.75 C-138.2528 313.1774 -134.9053 315.2465 -130 317 C-122.7862 318.2229 -115.674 318.0608 -108.375 317.957 C-106.3862 317.9404 -104.3974 317.9237 -102.4087 317.9085 C-97.5385 317.8706 -92.6686 317.8239 -87.7988 317.7532 C-85.0555 317.7139 -82.3124 317.6855 -79.5688 317.6689 C-76.9955 317.653 -74.4221 317.6216 -71.8491 317.5725 C-63.4621 317.5473 -57.9735 318.4729 -51.5312 324.1914 C-50.8609 324.9739 -50.1906 325.7563 -49.5 326.5625 C-48.7588 327.4275 -48.0176 328.2924 -47.2539 329.1836 C-43.6646 333.6687 -40.2865 338.2896 -37 343 C-40.658 346.7604 -44.4876 350.1869 -48.5 353.5625 C-58.962 362.4649 -69.1083 371.4901 -78 382 C-78.6523 382.7644 -79.3045 383.5288 -79.9766 384.3164 C-88.3536 394.4457 -95.3972 405.6554 -102 417 C-102.6097 418.0235 -103.2195 419.047 -103.8477 420.1016 C-104.4754 421.1612 -105.1032 422.2208 -105.75 423.3125 C-106.6085 424.7608 -106.6085 424.7608 -107.4844 426.2383 C-108.8793 428.7801 -109.9913 431.2854 -111 434 C-114.3647 432.5949 -115.966 431.0803 -118.0312 428.0977 C-118.5882 427.3 -119.1452 426.5023 -119.719 425.6804 C-120.3067 424.8165 -120.8945 423.9526 -121.5 423.0625 C-122.427 421.7154 -122.427 421.7154 -123.3728 420.3411 C-138.7836 397.7948 -155.169 373.5549 -164.1055 347.582 C-164.9998 345.0005 -165.9793 342.4715 -167 339.9375 C-167.313 339.1564 -167.626 338.3753 -167.9485 337.5706 C-168.5775 336.0328 -169.2246 334.5019 -169.9077 332.9873 C-173.3002 325.2102 -175.1224 317.0684 -177.0371 308.8342 C-177.6203 306.3326 -178.2194 303.8353 -178.8203 301.3379 C-182.9461 283.9868 -184.35 267.5647 -184.3157 249.7502 C-184.3125 246.3364 -184.336 242.9235 -184.3613 239.5098 C-184.4124 222.1988 -183.0555 205.4939 -178.1875 188.8125 C-177.7985 187.4418 -177.7985 187.4418 -177.4016 186.0435 C-167.2865 151.018 -150.7595 119.6806 -126.3657 92.5288 C-124.6695 90.63 -123.0238 88.69 -121.375 86.75 C-114.5086 78.9295 -106.96 71.694 -99 65 C-98.1196 64.242 -97.2391 63.4841 -96.332 62.7031 C-90.8335 58.0254 -85.2315 53.5929 -79.375 49.375 C-78.7709 48.937 -78.1668 48.4989 -77.5444 48.0476 C-73.2472 45 -73.2472 45 -71 45 C-71 44.34 -71 43.68 -71 43 C-69.4531 41.7734 -69.4531 41.7734 -67.25 40.375 C-66.4224 39.8413 -65.5948 39.3077 -64.7422 38.7578 C-63.8373 38.1777 -62.9323 37.5977 -62 37 C-60.1225 35.7537 -58.2477 34.5035 -56.375 33.25 C-55.3489 32.5681 -54.3228 31.8862 -53.2656 31.1836 C-51.0587 29.7079 -48.8613 28.2236 -46.6719 26.7227 C-7.4765 0 -7.4765 0 0 0 Z " fill="#1E6BFF" transform="translate(500,83)"/>
<path d="M0 0 C15.8977 34.783 29.422 70.9266 39 108 C39.2224 108.8604 39.4447 109.7209 39.6738 110.6074 C42.5725 121.9793 44.9566 133.3642 46.6958 144.9702 C46.9842 146.8944 47.2866 148.8164 47.5898 150.7383 C56.3328 208.11 43.4646 266.6124 9.5894 313.9722 C3.0349 322.8783 -4.3373 331.0421 -12 339 C-12.5018 339.5237 -13.0035 340.0474 -13.5205 340.5869 C-27.9061 355.5276 -44.5199 367.7717 -62 378.875 C-62.6764 379.31 -63.3527 379.745 -64.0496 380.1931 C-65.6604 381.1949 -67.3261 382.1075 -69 383 C-69.66 382.67 -70.32 382.34 -71 382 C-70.273 381.4779 -69.5459 380.9559 -68.7969 380.418 C-61.0411 374.7403 -53.9466 368.6378 -47 362 C-46.1956 361.2369 -45.3913 360.4737 -44.5625 359.6875 C-24.052 339.7468 -8.4664 313.9317 1 287 C1.3132 286.126 1.6265 285.252 1.9492 284.3516 C3.4852 279.4523 4.703 274.4827 5.9375 269.5 C6.3362 267.8951 6.3362 267.8951 6.7429 266.2578 C15.5657 230.5012 15.6719 193.1945 1.4492 158.5586 C0.0882 155.2165 -1.059 151.8636 -2.1875 148.4375 C-7.8471 132.5471 -15.9159 117.6124 -24.6538 103.231 C-48.8065 63.2043 -48.8065 63.2043 -44.1641 43.4414 C-37.2575 24.1355 -21.2733 10.5446 -3.8125 0.8477 C-2 0 -2 0 0 0 Z " fill="#0B4BB3" transform="translate(520,509)"/>

<!-- Company name -->
<text x="512" y="930" text-anchor="middle"
      font-family="Inter, ui-sans-serif, system-ui, -apple-system, Segoe UI, Arial, sans-serif"
      font-size="54" font-weight="700" fill="url(#nameGrad)">
  BioAestheticAx Network
</text>
<text x="512" y="975" text-anchor="middle"
      font-family="Inter, ui-sans-serif, system-ui, -apple-system, Segoe UI, Arial, sans-serif"
      font-size="20" font-weight="600" fill="#1E6BFF" letter-spacing="6">
  CONNECTED AESTHETIC CARE
</text>
</svg>
